<svg width="944" height="1543" viewBox="0 0 944 1543" fill="none" xmlns="http://www.w3.org/2000/svg">
<path fill-rule="evenodd" clip-rule="evenodd" d="M212.022 1L190.3 41.2995C168.578 81.599 125.133 162.198 157.716 242.797C190.3 324.404 298.911 405.003 331.495 485.602C365.888 566.201 320.633 646.799 266.328 727.398C212.022 807.997 146.855 888.596 179.439 970.203C212.022 1050.8 344.166 1131.4 409.333 1171.7L474.5 1212L943.5 1478V1171.7C943.5 1131.4 943.5 1031.6 943.5 951C943.5 869.393 943.5 775.599 943.5 695C943.5 614.401 943.5 530.599 943.5 450C943.5 369.401 943.5 301.107 943.5 219.5C943.5 138.901 943.5 41.2995 943.5 1L692.5 1L212.022 1Z" fill="#AACFCF"/>
<path d="M314.022 1L292.3 41.2995C270.578 81.599 227.133 162.198 259.716 242.797C292.3 324.404 400.911 405.003 433.495 485.602C467.888 566.201 422.633 646.799 368.328 727.398C314.022 807.997 248.855 888.597 281.439 970.203C314.022 1050.8 441.333 1108.7 506.5 1149L594 1196L942 1371" stroke="black" stroke-width="2"/>
<path d="M166.5 2L131.1 42.625C88.4 93.25 3 194.5 3 295.75C3 397 88.4 498.25 131.1 599.5C173.8 700.75 173.8 802 149.4 903.25C125 1004.5 115.5 1021 100 1089C84.5 1157 90.6123 1189.41 131.1 1227C185.5 1277.5 940.5 1488.5 940.5 1488.5" stroke="#FDE2E2" stroke-width="5"/>
<path d="M117.5 1.5L96.2998 41.2995C74.5775 81.599 31.133 162.198 63.7164 242.797C96.2998 324.404 204.911 405.003 237.495 485.602C271.888 566.201 226.633 646.799 172.328 727.398C118.022 807.997 52.8553 888.597 85.4387 970.203C118.022 1050.8 222.333 1141.7 287.5 1182L360.5 1231.5L941 1542" stroke="black" stroke-width="2"/>
</svg>
