<svg width="291" height="1255" viewBox="0 0 291 1255" fill="none" xmlns="http://www.w3.org/2000/svg">
<path d="M6 1L24 34C42 68 78 134 90 201C102 268 90 334 78 401C66 468 54 534 84 601C114 668 186 734 234 801C282 868 306 934 276 1001C246 1068 162 1134 120 1168L6 1253.12" stroke="#AACFCF" stroke-width="3"/>
<path d="M1 1253L7 1224C13 1196 25 1139 55 1082C85 1024 133 967 121 910C109 853 37 796 13 739C-11 682 13 624 49 567C85 510 133 453 145 396C157 339 133 282 103 224C73 167 37 110 19 82L1 53" stroke="black" stroke-width="2"/>
</svg>
