<svg width="287" height="1274" viewBox="0 0 287 1274" fill="none" xmlns="http://www.w3.org/2000/svg">
<path d="M210.5 1272.5L131.185 1161C107.185 1121 59.185 1041 29.185 961C-0.815033 881 -12.815 801 29.185 721C71.185 641 167.185 561 209.185 481C251.185 401 239.185 321 209.185 241C179.185 161 131.185 81 107.185 41L83.185 1" stroke="#FFDDEE" stroke-width="3"/>
<path d="M2 1L20 34C38 68 74 134 86 201C98 268 86 334 74 401C62 468 50 534 80 601C110 668 182 734 230 801C278 868 302 934 272 1001C242 1068 158 1134 116 1168L2 1253.12" stroke="#AACFCF" stroke-width="3"/>
</svg>
