<svg width="292" height="1255" viewBox="0 0 292 1255" fill="none" xmlns="http://www.w3.org/2000/svg">
<path d="M7 1L25 34C43 68 79 134 91 201C103 268 91 334 79 401C67 468 55 534 85 601C115 668 187 734 235 801C283 868 307 934 277 1001C247 1068 163 1134 121 1168L7 1253.12" stroke="#AACFCF" stroke-width="3"/>
<path d="M2 1253L8 1224C14 1196 26 1139 56 1082C86 1024 134 967 122 910C110 853 38 796 14 739C-10 682 14 624 50 567C86 510 134 453 146 396C158 339 134 282 104 224C74 167 38 110 20 82L2 53" stroke="#AACFCF" stroke-width="3"/>
</svg>
